<svg width="40" height="40" viewBox="0 0 40 40" fill="none" xmlns="http://www.w3.org/2000/svg">
<path d="M31.6667 6.66669H8.33334C7.00725 6.66669 5.73548 7.19347 4.7978 8.13115C3.86012 9.06883 3.33334 10.3406 3.33334 11.6667V28.3334C3.33334 29.6594 3.86012 30.9312 4.7978 31.8689C5.73548 32.8066 7.00725 33.3334 8.33334 33.3334H31.6667C32.9928 33.3334 34.2645 32.8066 35.2022 31.8689C36.1399 30.9312 36.6667 29.6594 36.6667 28.3334V11.6667C36.6667 10.3406 36.1399 9.06883 35.2022 8.13115C34.2645 7.19347 32.9928 6.66669 31.6667 6.66669V6.66669ZM30.55 10L20 17.9167L9.45 10H30.55ZM31.6667 30H8.33334C7.89131 30 7.46739 29.8244 7.15483 29.5119C6.84226 29.1993 6.66667 28.7754 6.66667 28.3334V12.0834L19 21.3334C19.2885 21.5497 19.6394 21.6667 20 21.6667C20.3606 21.6667 20.7115 21.5497 21 21.3334L33.3333 12.0834V28.3334C33.3333 28.7754 33.1577 29.1993 32.8452 29.5119C32.5326 29.8244 32.1087 30 31.6667 30Z" fill="#149211"/>
</svg>
