<svg width="40" height="40" viewBox="0 0 40 40" fill="none" xmlns="http://www.w3.org/2000/svg">
<path d="M21.6667 3.33334C21.2246 3.33334 20.8007 3.50894 20.4882 3.8215C20.1756 4.13406 20 4.55798 20 5.00001V18.3333C20 18.7754 20.1756 19.1993 20.4882 19.5119C20.8007 19.8244 21.2246 20 21.6667 20H35C35.442 20 35.866 19.8244 36.1785 19.5119C36.4911 19.1993 36.6667 18.7754 36.6667 18.3333C36.6667 14.3551 35.0863 10.5398 32.2733 7.72674C29.4602 4.9137 25.6449 3.33334 21.6667 3.33334ZM23.3333 16.6667V6.78334C25.827 7.1427 28.1374 8.29964 29.9189 10.0811C31.7004 11.8627 32.8573 14.173 33.2167 16.6667H23.3333Z" fill="#FFC700"/>
<path d="M34.7 23.4332C34.4932 23.3593 34.2739 23.327 34.0545 23.3381C33.8352 23.3493 33.6202 23.4036 33.422 23.4981C33.2238 23.5926 33.0461 23.7253 32.8993 23.8886C32.7526 24.052 32.6395 24.2427 32.5667 24.4499C31.8156 26.5731 30.5389 28.4715 28.8558 29.9679C27.1727 31.4643 25.1379 32.5099 22.9414 33.0073C20.7449 33.5047 18.4582 33.4376 16.2946 32.8123C14.131 32.187 12.1611 31.0238 10.5686 29.4313C8.97608 27.8388 7.81291 25.8689 7.18759 23.7053C6.56227 21.5417 6.49518 19.255 6.99258 17.0585C7.48998 14.862 8.53566 12.8272 10.0321 11.1441C11.5285 9.46099 13.4268 8.18433 15.55 7.43324C15.9677 7.28737 16.3104 6.98154 16.5026 6.58303C16.6948 6.18451 16.7209 5.72596 16.575 5.30824C16.4291 4.89053 16.1233 4.54787 15.7248 4.35564C15.3263 4.16342 14.8677 4.13737 14.45 4.28324C11.7951 5.22121 9.42106 6.81652 7.54953 8.92028C5.678 11.024 4.36998 13.5677 3.74754 16.3138C3.1251 19.0598 3.20854 21.9189 3.99007 24.624C4.7716 27.3291 6.22574 29.7921 8.21677 31.7831C10.2078 33.7742 12.6708 35.2283 15.3759 36.0098C18.081 36.7914 20.9401 36.8748 23.6862 36.2524C26.4322 35.6299 28.9759 34.3219 31.0796 32.4504C33.1834 30.5789 34.7787 28.2048 35.7167 25.5499C35.8608 25.1343 35.8348 24.6786 35.6444 24.2821C35.4539 23.8856 35.1145 23.5805 34.7 23.4332Z" fill="#FFC700"/>
</svg>
